<svg width="250" height="111" viewBox="0 0 250 111" fill="none" xmlns="http://www.w3.org/2000/svg">
<g clip-path="url(#clip0_79_98)">
<path d="M149.746 19.0561H157.834V22.0801H149.746V19.0561ZM150.034 25.9681H159.178V29.0881H146.17V12.2881H158.866V15.4081H150.034V25.9681Z" fill="white"/>
<path d="M136.608 29.376C135.312 29.376 134.104 29.168 132.984 28.752C131.88 28.32 130.92 27.712 130.104 26.928C129.288 26.144 128.648 25.224 128.184 24.168C127.736 23.112 127.512 21.952 127.512 20.688C127.512 19.424 127.736 18.264 128.184 17.208C128.648 16.152 129.288 15.232 130.104 14.448C130.936 13.664 131.904 13.064 133.008 12.648C134.112 12.216 135.32 12 136.632 12C138.088 12 139.4 12.256 140.568 12.768C141.752 13.264 142.744 14 143.544 14.976L141.048 17.28C140.472 16.624 139.832 16.136 139.128 15.816C138.424 15.48 137.656 15.312 136.824 15.312C136.04 15.312 135.32 15.44 134.664 15.696C134.008 15.952 133.44 16.32 132.96 16.8C132.48 17.28 132.104 17.848 131.832 18.504C131.576 19.16 131.448 19.888 131.448 20.688C131.448 21.488 131.576 22.216 131.832 22.872C132.104 23.528 132.48 24.096 132.96 24.576C133.44 25.056 134.008 25.424 134.664 25.68C135.32 25.936 136.04 26.064 136.824 26.064C137.656 26.064 138.424 25.904 139.128 25.584C139.832 25.248 140.472 24.744 141.048 24.072L143.544 26.376C142.744 27.352 141.752 28.096 140.568 28.608C139.4 29.12 138.08 29.376 136.608 29.376Z" fill="white"/>
<path d="M109.186 29.0881V12.2881H112.402L122.314 24.3841H120.754V12.2881H124.594V29.0881H121.402L111.466 16.9921H113.026V29.0881H109.186Z" fill="white"/>
<path d="M96.66 19.0561H104.748V22.0801H96.66V19.0561ZM96.948 25.9681H106.092V29.0881H93.084V12.2881H105.78V15.4081H96.948V25.9681Z" fill="white"/>
<path d="M85.209 29.0881V12.2881H89.097V29.0881H85.209Z" fill="white"/>
<path d="M67.5605 29.0881V12.2881H74.8326C76.3366 12.2881 77.6326 12.5361 78.7206 13.0321C79.8086 13.5121 80.6486 14.2081 81.2406 15.1201C81.8326 16.0321 82.1285 17.1201 82.1285 18.3841C82.1285 19.6321 81.8326 20.7121 81.2406 21.6241C80.6486 22.5201 79.8086 23.2081 78.7206 23.6881C77.6326 24.1681 76.3366 24.4081 74.8326 24.4081H69.7206L71.4485 22.7041V29.0881H67.5605ZM78.2405 29.0881L74.0406 22.9921H78.1926L82.4406 29.0881H78.2405ZM71.4485 23.1361L69.7206 21.3121H74.6165C75.8165 21.3121 76.7126 21.0561 77.3046 20.5441C77.8966 20.0161 78.1926 19.2961 78.1926 18.3841C78.1926 17.4561 77.8966 16.7361 77.3046 16.2241C76.7126 15.7121 75.8165 15.4561 74.6165 15.4561H69.7206L71.4485 13.6081V23.1361Z" fill="white"/>
<path d="M55.035 19.0561H63.123V22.0801H55.035V19.0561ZM55.323 25.9681H64.467V29.0881H51.459V12.2881H64.155V15.4081H55.323V25.9681Z" fill="white"/>
<path d="M34.1152 29.0881V12.2881H41.3872C42.8912 12.2881 44.1872 12.5361 45.2752 13.0321C46.3632 13.5121 47.2032 14.2081 47.7952 15.1201C48.3872 16.0321 48.6832 17.1201 48.6832 18.3841C48.6832 19.6321 48.3872 20.7121 47.7952 21.6241C47.2032 22.5361 46.3632 23.2401 45.2752 23.7361C44.1872 24.2161 42.8912 24.4561 41.3872 24.4561H36.2752L38.0032 22.7041V29.0881H34.1152ZM38.0032 23.1361L36.2752 21.2881H41.1712C42.3712 21.2881 43.2672 21.0321 43.8592 20.5201C44.4512 20.0081 44.7472 19.2961 44.7472 18.3841C44.7472 17.4561 44.4512 16.7361 43.8592 16.2241C43.2672 15.7121 42.3712 15.4561 41.1712 15.4561H36.2752L38.0032 13.6081V23.1361Z" fill="white"/>
<path d="M15.6016 29.0881L22.8256 19.1281V21.9601L15.9136 12.2881H20.3296L25.1056 19.0321L23.2576 19.0561L27.9616 12.2881H32.1856L25.3216 21.7921V19.0081L32.5936 29.0881H28.1056L23.1616 21.9601H24.9376L20.0656 29.0881H15.6016Z" fill="white"/>
<path d="M5.15998 19.0561H13.248V22.0801H5.15998V19.0561ZM5.44798 25.9681H14.592V29.0881H1.58398V12.2881H14.28V15.4081H5.44798V25.9681Z" fill="white"/>
<path d="M33.2886 58.2077C31.9766 58.2077 30.8246 57.9357 29.8326 57.3917C28.8406 56.8317 28.0646 56.0717 27.5046 55.1117C26.9446 54.1357 26.6646 53.0237 26.6646 51.7757C26.6646 50.5277 26.9286 49.4237 27.4566 48.4637C28.0006 47.5037 28.7366 46.7517 29.6646 46.2077C30.6086 45.6477 31.6646 45.3677 32.8326 45.3677C34.0166 45.3677 35.0646 45.6397 35.9766 46.1837C36.9046 46.7117 37.6326 47.4637 38.1606 48.4397C38.6886 49.3997 38.9526 50.5117 38.9526 51.7757C38.9526 51.8557 38.9446 51.9437 38.9286 52.0397C38.9286 52.1197 38.9286 52.2077 38.9286 52.3037H27.9606V51.0317H38.0166L37.3446 51.5357C37.3446 50.6237 37.1446 49.8157 36.7446 49.1117C36.3606 48.3917 35.8325 47.8317 35.1605 47.4317C34.4885 47.0317 33.7126 46.8317 32.8326 46.8317C31.9686 46.8317 31.1926 47.0317 30.5046 47.4317C29.8166 47.8317 29.2806 48.3917 28.8966 49.1117C28.5126 49.8317 28.3206 50.6557 28.3206 51.5837V51.8477C28.3206 52.8077 28.5286 53.6557 28.9446 54.3917C29.3766 55.1117 29.9686 55.6797 30.7206 56.0957C31.4886 56.4957 32.3606 56.6957 33.3366 56.6957C34.1046 56.6957 34.8165 56.5597 35.4725 56.2877C36.1445 56.0157 36.7206 55.5997 37.2006 55.0397L38.1606 56.1437C37.6006 56.8157 36.8965 57.3277 36.0485 57.6797C35.2165 58.0317 34.2966 58.2077 33.2886 58.2077Z" fill="white"/>
<path d="M18.1498 45.3678C19.1738 45.3678 20.0698 45.5678 20.8378 45.9678C21.6218 46.3518 22.2298 46.9438 22.6618 47.7438C23.1098 48.5438 23.3338 49.5518 23.3338 50.7678V58.0878H21.6298V50.9358C21.6298 49.6078 21.2938 48.6078 20.6218 47.9358C19.9658 47.2478 19.0378 46.9038 17.8378 46.9038C16.9418 46.9038 16.1578 47.0878 15.4858 47.4558C14.8298 47.8078 14.3178 48.3278 13.9498 49.0158C13.5978 49.6878 13.4218 50.5038 13.4218 51.4638V58.0878H11.7178V40.2798H13.4218V48.9438L13.0858 48.2958C13.4858 47.3838 14.1258 46.6718 15.0058 46.1598C15.8858 45.6318 16.9338 45.3678 18.1498 45.3678Z" fill="white"/>
<path d="M5.952 58.2081C4.768 58.2081 3.856 57.8881 3.216 57.2481C2.576 56.6081 2.256 55.7041 2.256 54.5361V42.7041H3.96V54.4401C3.96 55.1761 4.144 55.7441 4.512 56.1441C4.896 56.5441 5.44 56.7441 6.144 56.7441C6.896 56.7441 7.52 56.5281 8.016 56.0961L8.616 57.3201C8.28 57.6241 7.872 57.8481 7.392 57.9921C6.928 58.1361 6.448 58.2081 5.952 58.2081ZM0 46.9041V45.4881H7.8V46.9041H0Z" fill="white"/>
<path d="M134.445 106.256C133.405 106.256 132.453 106.016 131.589 105.536C130.741 105.056 130.061 104.336 129.549 103.376C129.053 102.4 128.805 101.168 128.805 99.6799C128.805 98.1759 129.045 96.9439 129.525 95.9839C130.021 95.0239 130.693 94.3119 131.541 93.8479C132.389 93.3679 133.357 93.1279 134.445 93.1279C135.709 93.1279 136.821 93.3999 137.781 93.9439C138.757 94.4879 139.525 95.2479 140.085 96.2239C140.661 97.1999 140.949 98.3519 140.949 99.6799C140.949 101.008 140.661 102.168 140.085 103.16C139.525 104.136 138.757 104.896 137.781 105.44C136.821 105.984 135.709 106.256 134.445 106.256ZM127.341 110.744V93.2719H130.197V96.2959L130.101 99.7039L130.341 103.112V110.744H127.341ZM134.109 103.688C134.829 103.688 135.469 103.528 136.029 103.208C136.605 102.888 137.061 102.424 137.397 101.816C137.733 101.208 137.901 100.496 137.901 99.6799C137.901 98.8479 137.733 98.1359 137.397 97.5439C137.061 96.9359 136.605 96.4719 136.029 96.1519C135.469 95.8319 134.829 95.6719 134.109 95.6719C133.389 95.6719 132.741 95.8319 132.165 96.1519C131.589 96.4719 131.133 96.9359 130.797 97.5439C130.461 98.1359 130.293 98.8479 130.293 99.6799C130.293 100.496 130.461 101.208 130.797 101.816C131.133 102.424 131.589 102.888 132.165 103.208C132.741 103.528 133.389 103.688 134.109 103.688Z" fill="white"/>
<path d="M120.659 106.088V103.496L120.491 102.944V98.4079C120.491 97.5279 120.227 96.8479 119.699 96.3679C119.171 95.8719 118.371 95.6239 117.299 95.6239C116.579 95.6239 115.867 95.7359 115.163 95.9599C114.475 96.1839 113.891 96.4959 113.411 96.8959L112.235 94.7119C112.923 94.1839 113.739 93.7919 114.683 93.5359C115.643 93.2639 116.635 93.1279 117.659 93.1279C119.515 93.1279 120.947 93.5759 121.955 94.4719C122.979 95.3519 123.491 96.7199 123.491 98.5759V106.088H120.659ZM116.627 106.256C115.667 106.256 114.827 106.096 114.107 105.776C113.387 105.44 112.827 104.984 112.427 104.408C112.043 103.816 111.851 103.152 111.851 102.416C111.851 101.696 112.019 101.048 112.355 100.472C112.707 99.8959 113.275 99.4399 114.059 99.1039C114.843 98.7679 115.883 98.5999 117.179 98.5999H120.899V100.592H117.395C116.371 100.592 115.683 100.76 115.331 101.096C114.979 101.416 114.803 101.816 114.803 102.296C114.803 102.84 115.019 103.272 115.451 103.592C115.883 103.912 116.483 104.072 117.251 104.072C117.987 104.072 118.643 103.904 119.219 103.568C119.811 103.232 120.235 102.736 120.491 102.08L120.995 103.88C120.707 104.632 120.187 105.216 119.435 105.632C118.699 106.048 117.763 106.256 116.627 106.256Z" fill="white"/>
<path d="M107.415 106.256C106.007 106.256 104.919 105.896 104.151 105.176C103.383 104.44 102.999 103.36 102.999 101.936V90.4399H105.999V101.864C105.999 102.472 106.151 102.944 106.455 103.28C106.775 103.616 107.215 103.784 107.775 103.784C108.447 103.784 109.007 103.608 109.455 103.256L110.295 105.392C109.943 105.68 109.511 105.896 108.999 106.04C108.487 106.184 107.959 106.256 107.415 106.256ZM100.887 95.7679V93.3679H109.431V95.7679H100.887Z" fill="white"/>
<path d="M87.5854 106.208C86.2734 106.208 85.1214 105.936 84.1294 105.392C83.1374 104.832 82.3614 104.072 81.8014 103.112C81.2414 102.136 80.9614 101.024 80.9614 99.7757C80.9614 98.5277 81.2254 97.4237 81.7534 96.4637C82.2974 95.5037 83.0334 94.7517 83.9614 94.2077C84.9054 93.6477 85.9614 93.3677 87.1294 93.3677C88.3134 93.3677 89.3614 93.6397 90.2734 94.1837C91.2014 94.7117 91.9294 95.4637 92.4574 96.4397C92.9854 97.3997 93.2494 98.5117 93.2494 99.7757C93.2494 99.8557 93.2414 99.9437 93.2254 100.04C93.2254 100.12 93.2254 100.208 93.2254 100.304H82.2574V99.0317H92.3134L91.6414 99.5357C91.6414 98.6237 91.4414 97.8157 91.0414 97.1117C90.6574 96.3917 90.1294 95.8317 89.4574 95.4317C88.7854 95.0317 88.0094 94.8317 87.1294 94.8317C86.2654 94.8317 85.4894 95.0317 84.8014 95.4317C84.1134 95.8317 83.5774 96.3917 83.1934 97.1117C82.8094 97.8317 82.6174 98.6557 82.6174 99.5837V99.8477C82.6174 100.808 82.8254 101.656 83.2414 102.392C83.6734 103.112 84.2654 103.68 85.0174 104.096C85.7854 104.496 86.6574 104.696 87.6334 104.696C88.4014 104.696 89.1134 104.56 89.7694 104.288C90.4414 104.016 91.0174 103.6 91.4974 103.04L92.4574 104.144C91.8974 104.816 91.1934 105.328 90.3454 105.68C89.5134 106.032 88.5934 106.208 87.5854 106.208Z" fill="white"/>
<path d="M72.4466 93.3677C73.4706 93.3677 74.3666 93.5677 75.1346 93.9677C75.9186 94.3517 76.5266 94.9437 76.9586 95.7437C77.4066 96.5437 77.6306 97.5517 77.6306 98.7677V106.088H75.9266V98.9357C75.9266 97.6077 75.5906 96.6077 74.9186 95.9357C74.2626 95.2477 73.3346 94.9037 72.1346 94.9037C71.2386 94.9037 70.4546 95.0877 69.7826 95.4557C69.1266 95.8077 68.6146 96.3277 68.2466 97.0157C67.8946 97.6877 67.7186 98.5037 67.7186 99.4637V106.088H66.0146V93.4877H67.6466V96.9437L67.3826 96.2957C67.7826 95.3837 68.4226 94.6717 69.3026 94.1597C70.1826 93.6317 71.2306 93.3677 72.4466 93.3677Z" fill="white"/>
<path d="M56.1038 106.208C54.8878 106.208 53.7918 105.936 52.8158 105.392C51.8558 104.832 51.0958 104.072 50.5358 103.112C49.9758 102.136 49.6958 101.024 49.6958 99.7757C49.6958 98.5117 49.9758 97.3997 50.5358 96.4397C51.0958 95.4797 51.8558 94.7277 52.8158 94.1837C53.7758 93.6397 54.8718 93.3677 56.1038 93.3677C57.3518 93.3677 58.4558 93.6397 59.4158 94.1837C60.3918 94.7277 61.1518 95.4797 61.6958 96.4397C62.2558 97.3997 62.5358 98.5117 62.5358 99.7757C62.5358 101.024 62.2558 102.136 61.6958 103.112C61.1518 104.072 60.3918 104.832 59.4158 105.392C58.4398 105.936 57.3358 106.208 56.1038 106.208ZM56.1038 104.696C57.0158 104.696 57.8238 104.496 58.5278 104.096C59.2318 103.68 59.7838 103.104 60.1838 102.368C60.5998 101.616 60.8078 100.752 60.8078 99.7757C60.8078 98.7837 60.5998 97.9197 60.1838 97.1837C59.7838 96.4477 59.2318 95.8797 58.5278 95.4797C57.8238 95.0637 57.0238 94.8557 56.1278 94.8557C55.2318 94.8557 54.4318 95.0637 53.7278 95.4797C53.0238 95.8797 52.4638 96.4477 52.0478 97.1837C51.6318 97.9197 51.4238 98.7837 51.4238 99.7757C51.4238 100.752 51.6318 101.616 52.0478 102.368C52.4638 103.104 53.0238 103.68 53.7278 104.096C54.4318 104.496 55.2238 104.696 56.1038 104.696Z" fill="white"/>
<path d="M224.627 57.6184C221.454 58.1583 219.7 62.6128 220.847 68.8222C222.737 78.9461 232.996 80.1609 238.935 74.6265C240.892 72.8042 242.715 74.2216 241.635 76.7188C239.61 81.3083 234.615 85.6953 226.719 85.6953C217.337 85.6953 209.238 80.4309 208.563 69.5646C207.888 58.7658 216.325 51.4766 226.449 51.4766C237.788 51.4766 244.942 59.4407 240.825 65.65C238.597 69.0246 231.983 69.0246 230.836 63.9627C229.756 59.1032 227.866 57.0785 224.627 57.6184Z" fill="white"/>
<path d="M204.893 78.5412C206.648 80.9709 207.12 81.8483 207.052 83.0632C206.918 84.4806 205.973 85.088 203.948 85.088C203.813 85.088 191.057 85.088 190.922 85.088C188.829 85.088 187.885 84.4806 187.817 83.0632C187.682 81.8483 188.222 80.9709 189.977 78.5412C191.192 76.8539 191.259 74.6266 191.259 69.9022C191.259 65.2452 191.192 63.0179 189.977 61.3306C188.222 58.9009 187.682 58.0235 187.817 56.8086C187.885 55.3912 188.897 54.5138 190.922 53.8389C193.014 53.164 196.996 51.9491 197.739 51.7466C201.586 50.6668 203.61 52.4891 203.61 56.2686C203.61 57.8885 203.61 63.8278 203.61 69.9022C203.61 74.6266 203.678 76.8539 204.893 78.5412ZM196.456 48.5745C192.272 48.5745 188.829 45.4698 188.829 41.5553C188.829 37.7082 192.272 34.6035 196.456 34.6035C200.708 34.6035 204.15 37.7082 204.15 41.5553C204.15 45.4698 200.708 48.5745 196.456 48.5745Z" fill="white"/>
<path d="M169.411 80.161C176.228 80.2285 186.959 79.0811 186.352 88.5301C185.744 97.9116 174.878 100.341 166.441 100.341C158.005 100.341 148.286 98.5865 149.096 91.7023C149.433 88.7326 151.188 87.3152 153.01 86.6403C151.728 85.6954 149.771 83.8731 150.513 80.161C151.053 77.2588 153.82 75.3016 156.182 74.2217C153.28 71.9269 151.526 68.6198 151.526 64.5702C151.526 56.5386 158.207 51.4767 167.251 51.4767C168.669 51.4767 169.951 51.6116 171.233 51.8816C171.301 49.3844 171.706 45.2673 175.89 43.58C180.547 41.7577 184.597 44.3224 183.922 48.3045C183.45 50.8692 180.817 52.9615 178.118 51.5442C176.16 50.5318 175.553 48.9119 174.271 49.7218C173.866 49.9918 173.798 51.0717 174.203 52.624C179.535 54.5813 182.977 58.7659 182.977 64.5702C182.977 72.5344 176.295 77.5963 167.251 77.5963C164.282 77.5963 161.514 77.0564 159.22 75.9765C158.342 76.9889 157.937 77.7313 158.342 78.5412C158.882 79.8236 164.552 80.161 169.411 80.161ZM167.251 57.146C164.214 57.146 162.797 60.2507 162.797 64.5702C162.797 68.8223 164.214 71.9944 167.251 71.9944C170.356 71.9944 171.706 68.8223 171.706 64.5702C171.706 60.2507 170.356 57.146 167.251 57.146ZM167.994 94.4695C173.258 94.6044 176.025 93.997 176.025 91.9722C176.025 89.745 171.368 90.5549 167.994 90.4199C161.177 90.2174 160.435 89.475 159.085 89.34C158.815 89.9475 158.612 90.4199 158.612 91.0948C158.612 93.3221 161.717 94.267 167.994 94.4695Z" fill="white"/>
<path d="M145.424 77.0563C147.111 78.8111 148.731 78.5411 148.596 80.5659C148.461 83.4681 144.749 85.6953 140.969 85.6953C135.975 85.6953 133.41 84.278 132.33 81.3758C130.508 84.2105 127.741 85.6953 123.421 85.6953C116.132 85.6953 111.812 81.9157 111.812 76.3813C111.812 67.4048 120.047 64.7726 131.858 64.7726C131.858 64.2327 131.858 63.8277 131.858 63.8277C131.858 60.0481 131.655 57.0784 128.956 56.6735C126.998 56.4035 125.109 56.9435 124.299 59.5082C123.016 63.6252 120.384 64.5701 117.414 63.5577C115.592 62.8828 113.905 60.7231 115.052 57.8209C117.009 52.6914 123.894 51.4766 129.631 51.4766C138.945 51.4766 144.141 55.6611 144.141 65.515V66.8649C144.141 71.5219 143.939 75.5039 145.424 77.0563ZM132.33 73.7491C132.33 72.3993 132.33 71.8593 132.33 71.0494C132.33 68.8897 131.453 68.8222 129.158 69.2271C126.593 69.6321 124.501 71.5894 124.299 74.559C124.164 77.3937 125.446 79.4185 128.416 79.4185C131.115 79.4185 132.33 77.2587 132.33 73.7491Z" fill="white"/>
<path d="M105.298 69.9023C105.298 74.6267 105.365 76.854 106.58 78.5413C108.335 80.971 108.807 81.8484 108.74 83.0633C108.605 84.4807 107.66 85.0881 105.635 85.0881C105.5 85.0881 92.2717 85.0881 92.1367 85.0881C90.112 85.0881 89.1671 84.4807 89.0321 83.0633C88.9646 81.8484 89.437 80.971 91.1919 78.5413C92.4067 76.854 92.4742 74.6267 92.4742 69.9023V52.9616C88.4247 62.6805 83.3627 74.8967 82.2828 77.5289C80.3255 82.2534 79.5831 85.0881 75.736 85.0881C72.6314 85.0881 71.1465 82.1184 69.8642 78.7438C69.1218 76.7865 63.9923 63.5579 59.5378 52.6241V69.9023C59.5378 74.6267 59.6728 76.854 60.8877 78.5413C62.6425 80.971 63.1824 81.8484 63.1149 83.0633C62.9799 84.4807 62.035 85.0881 59.9428 85.0881C59.8078 85.0881 52.991 85.0881 52.856 85.0881C50.7638 85.0881 49.8189 84.4807 49.6839 83.0633C49.6164 81.8484 50.0888 80.971 51.8437 78.5413C53.0585 76.854 53.1935 74.6267 53.1935 69.9023V53.0291C53.1935 48.3721 53.0585 46.1449 51.8437 44.39C50.0888 41.9603 49.6164 41.1504 49.6839 39.9355C49.8189 38.5182 50.7638 37.8433 52.856 37.8433C52.991 37.8433 60.5502 37.8433 63.3849 37.8433C66.2196 37.8433 68.1094 38.5857 69.3242 41.7578C70.7416 45.6049 79.1107 68.4174 79.1107 68.4174C79.1107 68.4174 88.4921 46.2123 90.3144 42.0278C91.5968 38.9906 92.4742 37.8433 96.1188 37.8433C96.2538 37.8433 105.5 37.8433 105.635 37.8433C107.66 37.8433 108.605 38.5182 108.74 39.9355C108.807 41.1504 108.335 41.9603 106.58 44.39C105.365 46.1449 105.298 48.3721 105.298 53.0291V69.9023Z" fill="white"/>
</g>
<defs>
<clipPath id="clip0_79_98">
<rect width="250" height="111" fill="white"/>
</clipPath>
</defs>
</svg>
