<svg width="945" height="220" viewBox="0 0 945 220" fill="none" xmlns="http://www.w3.org/2000/svg">
<path d="M940.322 206.608C943.452 208.818 944.926 210.107 944.926 212.317C944.926 214.343 943.637 216 940.322 216C931.113 216 929.456 215.263 917.485 215.263C906.62 215.263 901.647 216 894.465 216C890.045 216 888.572 214.343 888.572 212.317C888.572 210.107 889.861 209.186 892.623 206.792C896.491 203.477 895.754 199.978 892.992 192.98L889.677 184.876C888.019 180.641 885.625 179.352 880.837 179.352H847.688C843.452 179.352 841.426 180.456 839.953 184.324L836.269 192.98C833.323 199.609 833.507 203.845 837.559 206.608C840.873 208.633 844.373 210.291 844.373 212.685C844.373 214.527 842.899 216 839.584 216C835.717 216 833.139 215.263 825.772 215.263C818.221 215.263 815.827 216 812.144 216C808.829 216 807.356 214.527 807.356 212.685C807.356 210.291 810.855 208.633 814.17 206.608C818.221 203.845 821.168 199.794 823.93 192.98L859.29 109.001L857.632 104.765C855.422 99.0563 851.555 98.688 851.555 94.8206C851.555 93.1631 852.66 91.5056 857.08 90.4007C867.945 87.454 869.603 86.7174 876.049 84.3233C880.469 82.85 882.31 81.9291 884.152 81.9291C886.362 81.9291 887.467 83.4024 888.756 86.9016L931.666 192.98C933.876 198.689 936.638 203.845 940.322 206.608ZM852.476 169.775H876.601C881.574 169.775 883.231 168.486 881.389 163.882L866.84 128.338C866.472 127.233 865.92 126.312 865.183 126.312C864.078 126.312 863.894 127.233 863.341 128.338L848.424 163.882C846.767 167.933 848.424 169.775 852.476 169.775Z" fill="#FDF9E4"/>
<path d="M752.354 219.499C712.022 219.499 682.925 191.506 682.925 150.622C682.925 110.659 711.102 83.2183 752.354 83.2183C784.767 83.2183 802.447 104.029 802.447 123.182C802.447 134.416 795.633 143.992 783.294 143.992C771.507 143.992 765.614 135.889 765.614 127.97C765.614 117.841 774.638 114.71 774.638 108.449C774.638 102.74 767.64 95.373 754.196 95.373C732.465 95.373 722.336 112.869 722.336 137.362C722.336 166.46 738.542 204.95 765.062 204.95C783.294 204.95 790.292 190.217 792.502 177.694C792.686 175.484 792.87 174.563 793.238 171.248C793.791 167.013 795.817 164.618 799.132 164.618C803.183 164.618 805.025 169.591 805.025 174.932C805.025 202.372 786.056 219.499 752.354 219.499Z" fill="#FDF9E4"/>
<path d="M621.072 216C617.02 216 615.363 214.158 615.363 212.133C615.363 209.923 617.204 208.449 619.046 206.424C621.624 203.109 621.993 200.53 621.993 192.98V109.738C621.993 102.187 621.624 99.6088 619.046 96.478C617.204 94.2681 615.363 92.9789 615.363 90.769C615.363 88.7432 617.02 86.9016 621.072 86.9016C628.807 86.9016 631.753 87.454 641.146 87.454C651.09 87.454 652.932 86.9016 660.851 86.9016C664.718 86.9016 666.008 88.7432 666.008 90.769C666.008 92.9789 664.166 94.2681 662.324 96.478C659.746 99.6088 659.378 102.187 659.378 109.738V192.98C659.378 200.53 659.746 203.109 662.324 206.424C664.166 208.449 666.008 209.923 666.008 212.133C666.008 214.158 664.718 216 660.851 216C652.932 216 651.09 215.263 641.146 215.263C631.753 215.263 628.807 216 621.072 216Z" fill="#FDF9E4"/>
<path d="M465.145 216C461.093 216 459.435 214.158 459.435 212.133C459.435 209.923 461.277 208.449 463.119 206.424C465.697 203.109 466.065 200.53 466.065 192.98V109.738C466.065 102.187 465.697 99.6088 463.119 96.478C461.277 94.2681 459.435 92.9789 459.435 90.769C459.435 88.7432 461.093 86.9016 465.145 86.9016C472.879 86.9016 475.826 87.454 485.218 87.454C495.163 87.454 497.005 86.9016 504.924 86.9016C508.791 86.9016 510.08 88.7432 510.08 90.769C510.08 92.9789 508.239 94.2681 506.397 96.478C503.819 99.6088 503.45 102.187 503.45 109.738V133.679C503.45 140.125 506.397 143.624 512.659 143.624H542.677C548.939 143.624 551.885 140.125 551.885 133.679V109.738C551.885 102.187 551.517 99.6088 548.939 96.478C547.097 94.2681 545.256 92.9789 545.256 90.769C545.256 88.7432 546.913 86.9016 550.965 86.9016C558.699 86.9016 561.646 87.454 571.223 87.454C580.983 87.454 582.825 86.9016 590.744 86.9016C594.611 86.9016 595.9 88.7432 595.9 90.769C595.9 92.9789 594.059 94.2681 592.217 96.478C589.639 99.6088 589.271 102.187 589.271 109.738V192.98C589.271 200.53 589.639 203.109 592.217 206.424C594.059 208.449 595.9 209.923 595.9 212.133C595.9 214.158 594.611 216 590.744 216C582.825 216 580.983 215.263 571.223 215.263C561.646 215.263 558.699 216 550.965 216C546.913 216 545.256 214.158 545.256 212.133C545.256 209.923 547.097 208.449 548.939 206.424C551.517 203.109 551.885 200.53 551.885 192.98V164.25C551.885 157.804 548.939 154.305 542.677 154.305H512.659C506.397 154.305 503.45 157.804 503.45 164.25V192.98C503.45 200.53 503.819 203.109 506.397 206.424C508.239 208.449 510.08 209.923 510.08 212.133C510.08 214.158 508.791 216 504.924 216C497.005 216 495.163 215.263 485.218 215.263C475.826 215.263 472.879 216 465.145 216Z" fill="#FDF9E4"/>
<path d="M361.606 216C357.738 216 355.897 214.158 355.897 212.133C355.897 209.923 357.738 208.449 359.58 206.423C362.342 203.109 362.527 200.53 362.527 192.98V108.817C362.527 100.898 359.58 97.3988 352.95 97.3988H352.398C344.11 97.3988 335.823 104.029 324.405 122.261C322.195 126.128 320.537 127.786 317.591 127.786C315.013 127.786 313.723 126.128 313.723 123.918C313.723 120.972 317.775 113.053 320.537 102.924C322.379 95.7414 323.116 92.6106 324.037 87.6382C324.589 84.8757 326.431 83.2183 329.009 83.2183C333.613 83.2183 336.56 85.7966 345.399 86.7174C353.503 87.6382 366.21 87.454 381.495 87.454C396.597 87.454 409.304 87.6382 417.591 86.7174C426.247 85.7966 429.194 83.2183 433.798 83.2183C436.56 83.2183 438.218 84.8757 438.77 87.6382C439.875 92.6106 440.059 95.9255 442.085 102.924C446.321 116.92 449.083 120.419 449.083 123.918C449.083 126.128 447.61 127.786 445.032 127.786C442.085 127.786 440.612 126.128 438.218 122.261C426.8 104.029 418.696 97.3988 410.225 97.3988H409.857C403.227 97.3988 400.096 100.898 400.096 108.817V192.98C400.096 200.53 400.28 203.109 402.858 206.423C404.7 208.449 406.726 209.923 406.726 212.133C406.726 214.158 405.253 216 401.569 216C393.466 216 391.624 215.263 381.864 215.263C372.471 215.263 369.525 216 361.606 216Z" fill="#FDF9E4"/>
<path d="M308.929 86.9016C311.692 86.9016 313.165 87.8224 313.165 89.664C313.165 92.7948 308.561 94.0839 305.062 96.2939C301.01 98.8722 298.432 103.476 295.485 109.554L269.15 158.173C267.493 161.304 266.572 164.25 266.572 167.749V192.98C266.572 199.241 266.94 203.661 270.623 206.608C273.754 209.002 275.412 210.107 275.412 212.317C275.412 214.158 274.123 216 270.992 216C265.467 216 259.758 215.263 247.971 215.263C236.185 215.263 230.292 216 224.951 216C221.82 216 220.347 214.158 220.347 212.317C220.347 210.107 222.188 209.002 225.135 206.608C229.003 203.661 229.187 199.241 229.187 192.98V164.987C229.187 161.488 228.45 158.541 226.608 155.41L198.984 109.738C195.301 103.66 192.907 99.0563 189.039 96.2939C185.908 93.8998 184.251 92.6106 184.251 90.4007C184.251 88.559 185.908 86.9016 189.223 86.9016C194.748 86.9016 199.352 87.454 215.006 87.454C229.923 87.454 234.527 86.9016 240.236 86.9016C243.367 86.9016 244.656 88.3749 244.656 90.4007C244.656 92.6106 242.815 93.7156 240.421 96.1097C236.737 99.6088 236.737 102.74 241.157 109.738L263.073 145.834L282.594 109.554C285.909 103.108 285.909 99.0563 282.594 96.6622C279.463 94.2681 274.675 92.9789 274.675 90.0323C274.675 88.1907 276.332 86.9016 279.463 86.9016C285.725 86.9016 287.014 87.454 294.749 87.454C301.931 87.454 303.405 86.9016 308.929 86.9016Z" fill="#FDF9E4"/>
<path d="M177.48 206.424C179.322 208.449 180.979 209.923 180.979 212.133C180.979 214.158 179.506 216 175.454 216C169.008 216 166.983 215.263 155.749 215.263C145.251 215.263 142.857 216 135.859 216C131.992 216 130.518 214.158 130.518 212.133C130.518 209.923 132.176 208.449 134.017 206.424C136.596 203.109 136.043 200.53 134.938 192.98L122.599 113.421L89.2658 209.923C87.0558 216.368 85.2142 219.683 81.7151 219.683C78.0318 219.683 76.5585 216.184 73.9802 209.738L38.4367 117.657L27.3869 192.98C26.4661 199.609 27.5711 203.845 31.6227 206.608C34.9376 208.633 38.4367 210.107 38.4367 212.685C38.4367 214.527 36.9634 216 33.6485 216C29.7811 216 27.7553 215.263 19.6521 215.263C13.2064 215.263 10.9964 216 5.65568 216C2.34074 216 0.867432 214.527 0.867432 212.685C0.867432 210.107 4.36653 208.633 7.68147 206.608C11.7331 203.845 14.3114 199.609 15.4163 192.98L27.3869 109.738C28.4919 102.555 26.6503 99.6088 24.4403 96.8464C22.4145 94.2681 20.3887 92.7948 20.3887 90.5848C20.3887 88.559 21.862 86.9016 26.0978 86.9016C33.6485 86.9016 37.3318 87.454 47.6449 87.454C56.8531 87.454 57.958 86.9016 65.3246 86.9016C71.0336 86.9016 72.3228 89.8482 72.3228 92.4265C72.3228 96.8464 68.6395 99.6088 72.8753 110.659L92.7649 164.618L111.365 110.659C115.233 99.4247 111.918 96.8464 111.918 92.4265C111.918 89.8482 113.207 86.9016 118.916 86.9016C126.283 86.9016 130.703 87.454 140.095 87.454C150.592 87.454 154.828 86.9016 161.826 86.9016C166.614 86.9016 167.719 88.559 167.719 90.5848C167.719 92.7948 165.694 94.2681 163.484 96.8464C161.274 99.6088 159.432 102.555 160.537 109.738L172.508 192.98C173.613 200.53 174.902 203.109 177.48 206.424Z" fill="#FDF9E4"/>
<path d="M626 60.4646C646.617 62.5354 643.518 48.8687 644.191 41C643.787 60.0505 651.064 60.0505 664 60.8788C643.787 59.5846 644.596 70.8182 643.787 82C645 56.3232 633.277 62.5354 626 60.4646Z" fill="#FDF9E4"/>
<path d="M632 23.1414C649.362 24.8586 646.752 13.5253 647.319 7C646.979 22.798 653.106 22.798 664 23.4848C646.979 22.4116 647.66 31.7273 646.979 41C648 19.7071 638.128 24.8586 632 23.1414Z" fill="#FDF9E4"/>
<path d="M650 31.8081C684.723 35.1919 679.504 12.8586 680.638 0C679.957 31.1313 692.213 31.1313 714 32.4848C679.957 30.3699 681.319 48.7273 679.957 67C682 25.0404 662.255 35.1919 650 31.8081Z" fill="#FDF9E4"/>
</svg>
