<svg width="11" height="12" viewBox="0 0 11 12" fill="none" xmlns="http://www.w3.org/2000/svg">
<path d="M5.70469 11.3704L5.69877 11.3715L5.66053 11.3903L5.64976 11.3925L5.64222 11.3903L5.60398 11.3715C5.59824 11.3697 5.59393 11.3706 5.59106 11.3742L5.58891 11.3796L5.57975 11.6101L5.58244 11.6208L5.58783 11.6278L5.64384 11.6677L5.65191 11.6698L5.65838 11.6677L5.71438 11.6278L5.72085 11.6192L5.723 11.6101L5.71384 11.3801C5.71241 11.3744 5.70936 11.3711 5.70469 11.3704ZM5.8474 11.3096L5.8404 11.3106L5.74077 11.3607L5.73539 11.3661L5.73377 11.372L5.74346 11.6036L5.74616 11.6101L5.75046 11.6138L5.85871 11.6639C5.86553 11.6657 5.87074 11.6643 5.87433 11.6596L5.87648 11.6521L5.85817 11.3214C5.85638 11.3149 5.85279 11.311 5.8474 11.3096ZM5.46235 11.3106C5.45998 11.3092 5.45714 11.3087 5.45443 11.3093C5.45172 11.3099 5.44935 11.3116 5.44781 11.3139L5.44458 11.3214L5.42627 11.6521C5.42663 11.6585 5.42968 11.6628 5.43542 11.665L5.4435 11.6639L5.55175 11.6138L5.55713 11.6095L5.55929 11.6036L5.56844 11.372L5.56683 11.3656L5.56144 11.3602L5.46235 11.3106Z" fill="#9B9A9E"/>
<path d="M5.3853 0C8.35961 0 10.7706 2.411 10.7706 5.3853C10.7706 8.35961 8.35961 10.7706 5.3853 10.7706C2.411 10.7706 0 8.35961 0 5.3853C0 2.411 2.411 0 5.3853 0ZM5.3853 1.07706C4.24269 1.07706 3.14687 1.53096 2.33892 2.33892C1.53096 3.14687 1.07706 4.24269 1.07706 5.3853C1.07706 6.52792 1.53096 7.62374 2.33892 8.43169C3.14687 9.23964 4.24269 9.69355 5.3853 9.69355C6.52792 9.69355 7.62374 9.23964 8.43169 8.43169C9.23964 7.62374 9.69355 6.52792 9.69355 5.3853C9.69355 4.24269 9.23964 3.14687 8.43169 2.33892C7.62374 1.53096 6.52792 1.07706 5.3853 1.07706ZM5.3853 7.00089C5.52813 7.00089 5.66511 7.05763 5.7661 7.15863C5.8671 7.25962 5.92383 7.3966 5.92383 7.53942C5.92383 7.68225 5.8671 7.81923 5.7661 7.92022C5.66511 8.02122 5.52813 8.07795 5.3853 8.07795C5.24248 8.07795 5.1055 8.02122 5.0045 7.92022C4.90351 7.81923 4.84677 7.68225 4.84677 7.53942C4.84677 7.3966 4.90351 7.25962 5.0045 7.15863C5.1055 7.05763 5.24248 7.00089 5.3853 7.00089ZM5.3853 2.15412C5.52813 2.15412 5.66511 2.21086 5.7661 2.31185C5.8671 2.41285 5.92383 2.54982 5.92383 2.69265V5.92383C5.92383 6.06666 5.8671 6.20364 5.7661 6.30463C5.66511 6.40563 5.52813 6.46236 5.3853 6.46236C5.24248 6.46236 5.1055 6.40563 5.0045 6.30463C4.90351 6.20364 4.84677 6.06666 4.84677 5.92383V2.69265C4.84677 2.54982 4.90351 2.41285 5.0045 2.31185C5.1055 2.21086 5.24248 2.15412 5.3853 2.15412Z" fill="#9B9A9E"/>
</svg>
